{"accessors":[{"bufferView":0,"componentType":5125,"count":24,"max":[7.0],"min":[0.0],"type":"SCALAR"},{"bufferView":1,"componentType":5126,"count":8,"max":[35.43307113647461,27.55905532836914,0.0],"min":[0.0,0.0,0.0],"type":"VEC3"},{"bufferView":2,"componentType":5126,"count":8,"max":[0.0,0.0,-1.0],"min":[0.0,0.0,-1.0],"type":"VEC3"},{"bufferView":3,"componentType":5125,"count":51,"max":[16.0],"min":[0.0],"type":"SCALAR"},{"bufferView":4,"componentType":5126,"count":17,"max":[35.43307113647461,27.55905532836914,0.0],"min":[0.0,0.0,0.0],"type":"VEC3"},{"bufferView":5,"componentType":5126,"count":17,"max":[0.0,0.0,-1.0],"min":[0.0,0.0,-1.0],"type":"VEC3"},{"bufferView":6,"componentType":5125,"count":30,"max":[11.0],"min":[0.0],"type":"SCALAR"},{"bufferView":7,"componentType":5126,"count":12,"max":[35.43307113647461,27.55905532836914,0.0],"min":[0.0,0.0,0.0],"type":"VEC3"},{"bufferView":8,"componentType":5126,"count":12,"max":[0.0,0.0,-1.0],"min":[0.0,0.0,-1.0],"type":"VEC3"},{"bufferView":9,"componentType":5125,"count":798,"max":[436.0],"min":[0.0],"type":"SCALAR"},{"bufferView":10,"componentType":5126,"count":437,"max":[62.99212646484375,259.842529296875,11.811023712158204],"min":[0.0,0.0,0.0],"type":"VEC3"},{"bufferView":11,"componentType":5126,"count":437,"max":[1.0,1.0,2.604932886621501e-19],"min":[-1.0,-1.0,-1.0],"type":"VEC3"},{"bufferView":12,"componentType":5125,"count":11163,"max":[6596.0],"min":[0.0],"type":"SCALAR"},{"bufferView":13,"componentType":5126,"count":6597,"max":[19.01121711730957,37.713802337646487,24.03074073791504],"min":[0.0,0.9906812906265259,0.0],"type":"VEC3"},{"bufferView":14,"componentType":5126,"count":6597,"max":[0.9997285604476929,0.9991376996040344,0.9998675584793091],"min":[-0.9997285604476929,-0.9997407793998718,-0.9998675584793091],"type":"VEC3"},{"bufferView":15,"componentType":5125,"count":144,"max":[107.0],"min":[0.0],"type":"SCALAR"},{"bufferView":16,"componentType":5126,"count":108,"max":[9.889052391052246,5.414755821228027,11.479586601257325],"min":[8.044903755187989,0.0,9.022414207458496],"type":"VEC3"},{"bufferView":17,"componentType":5126,"count":108,"max":[0.9996331930160523,0.14121389389038087,0.9899517893791199],"min":[-0.9996331930160523,-0.14121389389038087,-0.9899517893791199],"type":"VEC3"},{"bufferView":18,"componentType":5125,"count":66,"max":[23.0],"min":[0.0],"type":"SCALAR"},{"bufferView":19,"componentType":5126,"count":24,"max":[9.784883499145508,0.24579954147338868,10.745542526245118],"min":[8.044903755187989,0.0,9.022414207458496],"type":"VEC3"},{"bufferView":20,"componentType":5126,"count":24,"max":[-0.01994856633245945,-0.9898695349693298,-0.14057141542434693],"min":[-0.01994856633245945,-0.9898695349693298,-0.14057141542434693],"type":"VEC3"},{"bufferView":21,"componentType":5125,"count":384,"max":[167.0],"min":[0.0],"type":"SCALAR"},{"bufferView":22,"componentType":5126,"count":168,"max":[15.005184173583985,15.155701637268067,3.160637617111206],"min":[9.273551940917969,14.161588668823243,0.7371019721031189],"type":"VEC3"},{"bufferView":23,"componentType":5126,"count":168,"max":[0.8329327702522278,0.9950647354125977,0.9570412635803223],"min":[-0.8329327702522278,-0.9950647354125977,-0.9570412635803223],"type":"VEC3"},{"bufferView":24,"componentType":5125,"count":81,"max":[52.0],"min":[0.0],"type":"SCALAR"},{"bufferView":25,"componentType":5126,"count":53,"max":[16.220727920532228,37.12915802001953,21.185131072998048],"min":[3.015143871307373,35.23679733276367,8.005407333374024],"type":"VEC3"},{"bufferView":26,"componentType":5126,"count":53,"max":[0.01994856633245945,0.9898695349693298,0.14057141542434693],"min":[0.01994856633245945,0.9898695349693298,0.14057141542434693],"type":"VEC3"},{"bufferView":27,"componentType":5125,"count":36,"max":[23.0],"min":[0.0],"type":"SCALAR"},{"bufferView":28,"componentType":5126,"count":24,"max":[14.063762664794922,25.828832626342775,5.847707748413086],"min":[9.59997272491455,22.344396591186525,4.041306018829346],"type":"VEC3"},{"bufferView":29,"componentType":5126,"count":24,"max":[0.9620361924171448,0.9894071221351624,0.9548265337944031],"min":[-0.9620361924171448,-0.9894071221351624,-0.9548265337944031],"type":"VEC3"},{"bufferView":30,"componentType":5126,"count":24,"max":[2.2095391750335695,0.9351116418838501],"min":[-2.2095391750335695,-1.0034010410308838],"type":"VEC2"},{"bufferView":31,"componentType":5125,"count":36,"max":[23.0],"min":[0.0],"type":"SCALAR"},{"bufferView":32,"componentType":5126,"count":24,"max":[5.5,5.5,3.75],"min":[-7.105427357601002e-15,0.0,2.25],"type":"VEC3"},{"bufferView":33,"componentType":5126,"count":24,"max":[1.0,1.0,1.0],"min":[-1.0,-1.0,-1.0],"type":"VEC3"},{"bufferView":34,"componentType":5125,"count":102,"max":[121.0],"min":[0.0],"type":"SCALAR"},{"bufferView":35,"componentType":5126,"count":122,"max":[0.6089090704917908,2.873945951461792,2.436828136444092],"min":[0.0,1.4296563863754273,1.0621602535247803],"type":"VEC3"},{"bufferView":36,"componentType":5126,"count":122,"max":[0.9910852909088135,0.9425715208053589,0.8376887440681458],"min":[-0.996947705745697,-0.9589382410049439,-0.9073896408081055],"type":"VEC3"},{"bufferView":37,"componentType":5125,"count":594,"max":[379.0],"min":[0.0],"type":"SCALAR"},{"bufferView":38,"componentType":5126,"count":380,"max":[8.16660213470459,5.312404155731201,4.901974678039551],"min":[0.46547067165374758,0.0,0.0],"type":"VEC3"},{"bufferView":39,"componentType":5126,"count":380,"max":[0.9616144895553589,0.9967547655105591,0.9635304808616638],"min":[-0.9616144895553589,-0.9967547655105591,-0.9635304808616638],"type":"VEC3"},{"bufferView":40,"componentType":5125,"count":384,"max":[171.0],"min":[0.0],"type":"SCALAR"},{"bufferView":41,"componentType":5126,"count":172,"max":[7.310340881347656,4.767172336578369,3.787947654724121],"min":[0.01346138771623373,1.6300326585769654,1.0621602535247803],"type":"VEC3"},{"bufferView":42,"componentType":5126,"count":172,"max":[0.8329327702522278,0.9950647354125977,0.9570412635803223],"min":[-0.8329327702522278,-0.9950647354125977,-0.9289546012878418],"type":"VEC3"},{"bufferView":43,"componentType":5125,"count":354,"max":[179.0],"min":[0.0],"type":"SCALAR"},{"bufferView":44,"componentType":5126,"count":180,"max":[1.505831003189087,2.796696662902832,2.5382039546966554],"min":[0.0,1.5705955028533936,1.164828896522522],"type":"VEC3"},{"bufferView":45,"componentType":5126,"count":180,"max":[0.27564069628715517,0.9966408014297485,0.9644383788108826],"min":[-0.961198627948761,-0.9966408014297485,-0.9644383788108826],"type":"VEC3"},{"bufferView":46,"componentType":5125,"count":36,"max":[17.0],"min":[0.0],"type":"SCALAR"},{"bufferView":47,"componentType":5126,"count":18,"max":[7.310340881347656,4.762242794036865,2.8149733543395998],"min":[0.2535623013973236,1.4296563863754273,1.1288427114486695],"type":"VEC3"},{"bufferView":48,"componentType":5126,"count":18,"max":[0.9604036211967468,0.09543620049953461,0.26673009991645815],"min":[0.2737954556941986,-0.08049794286489487,-0.9570412635803223],"type":"VEC3"},{"bufferView":49,"componentType":5125,"count":342,"max":[199.0],"min":[0.0],"type":"SCALAR"},{"bufferView":50,"componentType":5126,"count":200,"max":[-14.989832878112793,71.0259017944336,20.243331909179689],"min":[-24.749155044555665,-0.8902314901351929,0.0],"type":"VEC3"},{"bufferView":51,"componentType":5126,"count":200,"max":[1.0,1.0,1.0],"min":[-1.0,-1.0,-1.0],"type":"VEC3"}],"asset":{"generator":"SimLab GLTF","version":"2.0"},"bufferViews":[{"buffer":0,"byteLength":96,"target":34963},{"buffer":0,"byteLength":96,"byteOffset":96,"byteStride":12,"target":34962},{"buffer":0,"byteLength":96,"byteOffset":192,"byteStride":12,"target":34962},{"buffer":0,"byteLength":204,"byteOffset":288,"target":34963},{"buffer":0,"byteLength":204,"byteOffset":492,"byteStride":12,"target":34962},{"buffer":0,"byteLength":204,"byteOffset":696,"byteStride":12,"target":34962},{"buffer":0,"byteLength":120,"byteOffset":900,"target":34963},{"buffer":0,"byteLength":144,"byteOffset":1020,"byteStride":12,"target":34962},{"buffer":0,"byteLength":144,"byteOffset":1164,"byteStride":12,"target":34962},{"buffer":0,"byteLength":3192,"byteOffset":1308,"target":34963},{"buffer":0,"byteLength":5244,"byteOffset":4500,"byteStride":12,"target":34962},{"buffer":0,"byteLength":5244,"byteOffset":9744,"byteStride":12,"target":34962},{"buffer":0,"byteLength":44652,"byteOffset":14988,"target":34963},{"buffer":0,"byteLength":79164,"byteOffset":59640,"byteStride":12,"target":34962},{"buffer":0,"byteLength":79164,"byteOffset":138804,"byteStride":12,"target":34962},{"buffer":0,"byteLength":576,"byteOffset":217968,"target":34963},{"buffer":0,"byteLength":1296,"byteOffset":218544,"byteStride":12,"target":34962},{"buffer":0,"byteLength":1296,"byteOffset":219840,"byteStride":12,"target":34962},{"buffer":0,"byteLength":264,"byteOffset":221136,"target":34963},{"buffer":0,"byteLength":288,"byteOffset":221400,"byteStride":12,"target":34962},{"buffer":0,"byteLength":288,"byteOffset":221688,"byteStride":12,"target":34962},{"buffer":0,"byteLength":1536,"byteOffset":221976,"target":34963},{"buffer":0,"byteLength":2016,"byteOffset":223512,"byteStride":12,"target":34962},{"buffer":0,"byteLength":2016,"byteOffset":225528,"byteStride":12,"target":34962},{"buffer":0,"byteLength":324,"byteOffset":227544,"target":34963},{"buffer":0,"byteLength":636,"byteOffset":227868,"byteStride":12,"target":34962},{"buffer":0,"byteLength":636,"byteOffset":228504,"byteStride":12,"target":34962},{"buffer":0,"byteLength":144,"byteOffset":229140,"target":34963},{"buffer":0,"byteLength":288,"byteOffset":229284,"byteStride":12,"target":34962},{"buffer":0,"byteLength":288,"byteOffset":229572,"byteStride":12,"target":34962},{"buffer":0,"byteLength":192,"byteOffset":229860,"byteStride":8,"target":34962},{"buffer":0,"byteLength":144,"byteOffset":230052,"target":34963},{"buffer":0,"byteLength":288,"byteOffset":230196,"byteStride":12,"target":34962},{"buffer":0,"byteLength":288,"byteOffset":230484,"byteStride":12,"target":34962},{"buffer":0,"byteLength":408,"byteOffset":230772,"target":34963},{"buffer":0,"byteLength":1464,"byteOffset":231180,"byteStride":12,"target":34962},{"buffer":0,"byteLength":1464,"byteOffset":232644,"byteStride":12,"target":34962},{"buffer":0,"byteLength":2376,"byteOffset":234108,"target":34963},{"buffer":0,"byteLength":4560,"byteOffset":236484,"byteStride":12,"target":34962},{"buffer":0,"byteLength":4560,"byteOffset":241044,"byteStride":12,"target":34962},{"buffer":0,"byteLength":1536,"byteOffset":245604,"target":34963},{"buffer":0,"byteLength":2064,"byteOffset":247140,"byteStride":12,"target":34962},{"buffer":0,"byteLength":2064,"byteOffset":249204,"byteStride":12,"target":34962},{"buffer":0,"byteLength":1416,"byteOffset":251268,"target":34963},{"buffer":0,"byteLength":2160,"byteOffset":252684,"byteStride":12,"target":34962},{"buffer":0,"byteLength":2160,"byteOffset":254844,"byteStride":12,"target":34962},{"buffer":0,"byteLength":144,"byteOffset":257004,"target":34963},{"buffer":0,"byteLength":216,"byteOffset":257148,"byteStride":12,"target":34962},{"buffer":0,"byteLength":216,"byteOffset":257364,"byteStride":12,"target":34962},{"buffer":0,"byteLength":1368,"byteOffset":257580,"target":34963},{"buffer":0,"byteLength":2400,"byteOffset":258948,"byteStride":12,"target":34962},{"buffer":0,"byteLength":2400,"byteOffset":261348,"byteStride":12,"target":34962}],"buffers":[{"byteLength":263748,"uri":"openpond.bin"}],"extensionsUsed":["KHR_materials_pbrSpecularGlossiness"],"images":[{"mimeType":"image/jpeg","uri":"Textures/Carpet_BlueGray.jpg"}],"materials":[{"extensions":{"KHR_materials_pbrSpecularGlossiness":{"diffuseFactor":[0.8999999761581421,0.8999999761581421,0.8999999761581421,1.0],"specularFactor":[0.25,0.25,0.25],"glossinessFactor":0.5}},"name":"DefaultMaterial~1","alphaMode":"MASK","doubleSided":true,"pbrMetallicRoughness":{"baseColorFactor":[0.8999999761581421,0.8999999761581421,0.8999999761581421,1.0],"metallicFactor":0.5,"roughnessFactor":0.5}},{"extensions":{"KHR_materials_pbrSpecularGlossiness":{"diffuseFactor":[0.0,0.0,0.8039215803146362,1.0],"specularFactor":[0.0,0.0,0.4019607901573181],"glossinessFactor":0.5}},"name":"[MediumBlue]","alphaMode":"MASK","doubleSided":true,"pbrMetallicRoughness":{"baseColorFactor":[0.0,0.0,0.8039215803146362,1.0],"metallicFactor":0.5,"roughnessFactor":0.5}},{"extensions":{"KHR_materials_pbrSpecularGlossiness":{"diffuseFactor":[0.8627451062202454,0.8627451062202454,0.8627451062202454,1.0],"specularFactor":[0.4313725531101227,0.4313725531101227,0.4313725531101227],"glossinessFactor":0.5}},"name":"[Gainsboro]","alphaMode":"MASK","doubleSided":true,"pbrMetallicRoughness":{"baseColorFactor":[0.8627451062202454,0.8627451062202454,0.8627451062202454,1.0],"metallicFactor":0.5,"roughnessFactor":0.5}},{"extensions":{"KHR_materials_pbrSpecularGlossiness":{"diffuseFactor":[0.7529411911964417,0.7529411911964417,0.7529411911964417,1.0],"specularFactor":[0.3764705955982208,0.3764705955982208,0.3764705955982208],"glossinessFactor":0.5}},"name":"[Silver]","alphaMode":"MASK","doubleSided":true,"pbrMetallicRoughness":{"baseColorFactor":[0.7529411911964417,0.7529411911964417,0.7529411911964417,1.0],"metallicFactor":0.5,"roughnessFactor":0.5}},{"extensions":{"KHR_materials_pbrSpecularGlossiness":{"diffuseFactor":[0.3176470696926117,0.3176470696926117,0.3176470696926117,1.0],"specularFactor":[0.15882353484630586,0.15882353484630586,0.15882353484630586],"glossinessFactor":0.5}},"name":"[DarkGray]","alphaMode":"MASK","doubleSided":true,"pbrMetallicRoughness":{"baseColorFactor":[0.3176470696926117,0.3176470696926117,0.3176470696926117,1.0],"metallicFactor":0.5,"roughnessFactor":0.5}},{"extensions":{"KHR_materials_pbrSpecularGlossiness":{"diffuseFactor":[0.501960813999176,0.501960813999176,0.501960813999176,1.0],"specularFactor":[0.250980406999588,0.250980406999588,0.250980406999588],"glossinessFactor":0.5}},"name":"[Gray]","alphaMode":"MASK","doubleSided":true,"pbrMetallicRoughness":{"baseColorFactor":[0.501960813999176,0.501960813999176,0.501960813999176,1.0],"metallicFactor":0.5,"roughnessFactor":0.5}},{"extensions":{"KHR_materials_pbrSpecularGlossiness":{"diffuseFactor":[1.0,1.0,1.0,1.0],"diffuseTexture":{"index":0},"specularFactor":[0.5,0.5,0.5],"glossinessFactor":0.5}},"name":"[Carpet_BlueGray]","alphaMode":"MASK","doubleSided":true,"pbrMetallicRoughness":{"baseColorTexture":{"index":0},"metallicFactor":0.5,"roughnessFactor":0.5}},{"extensions":{"KHR_materials_pbrSpecularGlossiness":{"diffuseFactor":[0.6627451181411743,0.6627451181411743,0.6627451181411743,1.0],"specularFactor":[0.33137255907058718,0.33137255907058718,0.33137255907058718],"glossinessFactor":0.5}},"name":"[LightGray]","alphaMode":"MASK","doubleSided":true,"pbrMetallicRoughness":{"baseColorFactor":[0.6627451181411743,0.6627451181411743,0.6627451181411743,1.0],"metallicFactor":0.5,"roughnessFactor":0.5}}],"meshes":[{"primitives":[{"attributes":{"NORMAL":2,"POSITION":1},"indices":0,"material":0,"mode":4}]},{"primitives":[{"attributes":{"NORMAL":5,"POSITION":4},"indices":3,"material":0,"mode":4}]},{"primitives":[{"attributes":{"NORMAL":8,"POSITION":7},"indices":6,"material":0,"mode":4}]},{"primitives":[{"attributes":{"NORMAL":11,"POSITION":10},"indices":9,"material":0,"mode":4}]},{"primitives":[{"attributes":{"NORMAL":14,"POSITION":13},"indices":12,"material":1,"mode":4}]},{"primitives":[{"attributes":{"NORMAL":17,"POSITION":16},"indices":15,"material":2,"mode":4}]},{"primitives":[{"attributes":{"NORMAL":20,"POSITION":19},"indices":18,"material":3,"mode":4}]},{"primitives":[{"attributes":{"NORMAL":23,"POSITION":22},"indices":21,"material":4,"mode":4}]},{"primitives":[{"attributes":{"NORMAL":26,"POSITION":25},"indices":24,"material":5,"mode":4}]},{"primitives":[{"attributes":{"NORMAL":29,"POSITION":28,"TEXCOORD_0":30},"indices":27,"material":6,"mode":4}]},{"primitives":[{"attributes":{"NORMAL":33,"POSITION":32},"indices":31,"material":1,"mode":4}]},{"primitives":[{"attributes":{"NORMAL":36,"POSITION":35},"indices":34,"material":5,"mode":4}]},{"primitives":[{"attributes":{"NORMAL":39,"POSITION":38},"indices":37,"material":1,"mode":4}]},{"primitives":[{"attributes":{"NORMAL":42,"POSITION":41},"indices":40,"material":0,"mode":4}]},{"primitives":[{"attributes":{"NORMAL":45,"POSITION":44},"indices":43,"material":7,"mode":4}]},{"primitives":[{"attributes":{"NORMAL":48,"POSITION":47},"indices":46,"material":4,"mode":4}]},{"primitives":[{"attributes":{"NORMAL":51,"POSITION":50},"indices":49,"material":0,"mode":4}]}],"nodes":[{"children":[1],"matrix":[1.0,0.0,0.0,0.0,0.0,4.4896593387466768e-11,-1.0,0.0,0.0,1.0,4.4896593387466768e-11,0.0,0.0,0.0,0.0,1.0]},{"name":"Assembly-2","children":[2],"rotation":[0.0,0.0,0.0,-1.0]},{"name":"complete+raceway+model","children":[3,7,11,15,19,58],"rotation":[0.0,0.0,0.0,-1.0]},{"name":"Part-1","children":[4],"rotation":[0.0,0.0,0.0,-1.0],"scale":[0.02539999969303608,0.02539999969303608,0.02539999969303608],"translation":[-0.94727623462677,0.10793442279100418,0.44418060779571535]},{"name":"3DGeom-2","children":[6],"rotation":[0.0,0.0,0.0,-1.0]},{"mesh":0},{"children":[5]},{"name":"Part-2","children":[8],"rotation":[0.0,-0.5,0.0,-0.8660253882408142],"scale":[0.02539999969303608,0.02539999969303608,0.02539999969303608],"translation":[-0.7086395621299744,0.10793442279100418,0.8353062868118286]},{"name":"3DGeom-3","children":[10],"rotation":[0.0,0.0,0.0,-1.0]},{"mesh":1},{"children":[9]},{"name":"Part-3","children":[12],"rotation":[0.0,0.5,0.0,-0.8660253882408142],"scale":[0.02539999969303608,0.02539999969303608,0.02539999969303608],"translation":[-0.7310146689414978,0.1117972731590271,0.048611320555210116]},{"name":"3DGeom-4","children":[14],"rotation":[0.0,0.0,0.0,-1.0]},{"mesh":2},{"children":[13]},{"name":"Part-4","children":[16],"rotation":[0.0,0.0,-0.7071067690849304,-0.7071067690849304],"scale":[0.02539999969303608,0.02539999969303608,0.02539999969303608],"translation":[4.301474571228027,-0.7726118564605713,-0.0398193821310997]},{"name":"3DGeom-5","children":[18],"rotation":[0.0,0.0,0.0,-1.0]},{"mesh":3},{"children":[17]},{"name":"Assembly-6","children":[20,23,26,29,32,35,38,42],"rotation":[-0.004902979824692011,0.9902995824813843,0.05160560831427574,-0.1289166510105133],"scale":[0.014986000023782254,0.014986000023782254,0.014986000023782254],"translation":[-0.32632163166999819,1.234885573387146,0.536561131477356]},{"name":"3DGeom-6","children":[22],"rotation":[0.0,0.0,0.0,-1.0]},{"mesh":4},{"children":[21]},{"name":"3DGeom-7","children":[25],"rotation":[0.0,0.0,0.0,-1.0]},{"mesh":5},{"children":[24]},{"name":"3DGeom-8","children":[28],"rotation":[0.0,0.0,0.0,-1.0]},{"mesh":6},{"children":[27]},{"name":"3DGeom-9","children":[31],"rotation":[0.0,0.0,0.0,-1.0]},{"mesh":7},{"children":[30]},{"name":"3DGeom-10","children":[34],"rotation":[0.0,0.0,0.0,-1.0]},{"mesh":8},{"children":[33]},{"name":"3DGeom-11","children":[37],"rotation":[0.0,0.0,0.0,-1.0]},{"mesh":9},{"children":[36]},{"name":"Part-7","children":[39],"rotation":[0.05925566703081131,0.13404527306556703,-0.6754552721977234,-0.7226899862289429],"translation":[15.27717399597168,14.118497848510743,1.411129355430603]},{"name":"3DGeom-12","children":[41],"rotation":[0.0,0.0,0.0,-1.0]},{"mesh":10},{"children":[40]},{"name":"Assembly-8","children":[43,46,49,52,55],"rotation":[0.0,0.0,0.0,-1.0],"translation":[7.909287929534912,15.205426216125489,0.007686465047299862]},{"name":"3DGeom-13","children":[45],"rotation":[0.0,0.0,0.0,-1.0]},{"mesh":11},{"children":[44]},{"name":"3DGeom-14","children":[48],"rotation":[0.0,0.0,0.0,-1.0]},{"mesh":12},{"children":[47]},{"name":"3DGeom-15","children":[51],"rotation":[0.0,0.0,0.0,-1.0]},{"mesh":13},{"children":[50]},{"name":"3DGeom-16","children":[54],"rotation":[0.0,0.0,0.0,-1.0]},{"mesh":14},{"children":[53]},{"name":"3DGeom-17","children":[57],"rotation":[0.0,0.0,0.0,-1.0]},{"mesh":15},{"children":[56]},{"name":"Assembly-9","children":[60],"rotation":[0.0,0.0,0.0,-1.0],"scale":[0.02539999969303608,0.02539999969303608,0.02539999969303608]},{"mesh":16},{"children":[59]}],"scene":0,"scenes":[{"nodes":[0]}],"textures":[{"source":0}]}